<svg width="640" height="390" viewBox="0 0 640 390" fill="none" xmlns="http://www.w3.org/2000/svg">
<rect width="640" height="390" fill="#222428"/>
<path d="M146.182 251.2V265.276C146.182 268.041 146.737 270.104 147.848 271.464C148.959 272.824 150.681 273.504 153.016 273.504C155.373 273.504 157.107 272.824 158.218 271.464C159.351 270.104 159.918 268.041 159.918 265.276V251.2H161.754V265.174C161.754 271.861 158.841 275.204 153.016 275.204C147.236 275.204 144.346 271.861 144.346 265.174V251.2H146.182ZM174.359 257.558C176.422 257.558 178.065 258.204 179.289 259.496C180.536 260.788 181.159 262.737 181.159 265.344V275H179.425V265.412C179.425 263.395 178.949 261.853 177.997 260.788C177.068 259.7 175.765 259.156 174.087 259.156C172.251 259.156 170.801 259.825 169.735 261.162C168.67 262.477 168.137 264.256 168.137 266.5V275H166.403V257.762H167.899L168.171 261.434C168.693 260.255 169.475 259.315 170.517 258.612C171.56 257.909 172.841 257.558 174.359 257.558ZM201.125 273.402V275H200.105C199.108 275 198.371 274.751 197.895 274.252C197.442 273.753 197.238 273.051 197.283 272.144V271.43C196.762 272.586 195.946 273.504 194.835 274.184C193.724 274.864 192.342 275.204 190.687 275.204C188.828 275.204 187.344 274.762 186.233 273.878C185.122 272.994 184.567 271.793 184.567 270.274C184.567 268.642 185.145 267.384 186.301 266.5C187.48 265.593 189.168 265.14 191.367 265.14H197.215V263.644C197.215 262.216 196.762 261.105 195.855 260.312C194.971 259.496 193.724 259.088 192.115 259.088C190.687 259.088 189.52 259.405 188.613 260.04C187.729 260.675 187.174 261.525 186.947 262.59H185.213C185.44 261.026 186.165 259.802 187.389 258.918C188.613 258.011 190.211 257.558 192.183 257.558C194.336 257.558 196.002 258.091 197.181 259.156C198.36 260.221 198.949 261.74 198.949 263.712V271.736C198.949 272.257 199.085 272.665 199.357 272.96C199.629 273.255 200.003 273.402 200.479 273.402H201.125ZM197.215 266.636H191.231C189.644 266.636 188.432 266.942 187.593 267.554C186.754 268.166 186.335 269.039 186.335 270.172C186.335 271.237 186.732 272.099 187.525 272.756C188.341 273.391 189.429 273.708 190.789 273.708C192.784 273.708 194.348 273.187 195.481 272.144C196.637 271.079 197.215 269.707 197.215 268.03V266.636ZM212.022 257.558C213.586 257.558 214.98 257.921 216.204 258.646C217.451 259.349 218.414 260.369 219.094 261.706C219.797 263.043 220.148 264.596 220.148 266.364C220.148 268.087 219.797 269.617 219.094 270.954C218.414 272.291 217.451 273.334 216.204 274.082C214.98 274.83 213.586 275.204 212.022 275.204C210.436 275.204 209.076 274.841 207.942 274.116C206.809 273.368 205.982 272.359 205.46 271.09L205.188 275H203.692V251.2H205.426V261.774C205.993 260.505 206.843 259.485 207.976 258.714C209.11 257.943 210.458 257.558 212.022 257.558ZM211.886 273.64C213.156 273.64 214.278 273.334 215.252 272.722C216.25 272.11 217.02 271.249 217.564 270.138C218.108 269.027 218.38 267.769 218.38 266.364C218.38 264.959 218.108 263.712 217.564 262.624C217.02 261.513 216.25 260.652 215.252 260.04C214.278 259.405 213.156 259.088 211.886 259.088C210.617 259.088 209.484 259.405 208.486 260.04C207.512 260.652 206.752 261.513 206.208 262.624C205.664 263.712 205.392 264.947 205.392 266.33C205.392 267.758 205.664 269.027 206.208 270.138C206.752 271.249 207.512 272.11 208.486 272.722C209.484 273.334 210.617 273.64 211.886 273.64ZM223.897 251.2H225.631V275H223.897V251.2ZM229.38 266.364C229.38 264.641 229.709 263.111 230.366 261.774C231.046 260.437 231.987 259.405 233.188 258.68C234.412 257.932 235.795 257.558 237.336 257.558C238.855 257.558 240.203 257.887 241.382 258.544C242.561 259.179 243.49 260.108 244.17 261.332C244.873 262.556 245.247 264.007 245.292 265.684C245.292 266.001 245.281 266.239 245.258 266.398H231.216C231.193 266.489 231.182 266.625 231.182 266.806C231.205 268.143 231.488 269.333 232.032 270.376C232.576 271.396 233.324 272.201 234.276 272.79C235.228 273.357 236.305 273.64 237.506 273.64C238.911 273.64 240.135 273.255 241.178 272.484C242.221 271.691 242.912 270.625 243.252 269.288H245.02C244.612 271.056 243.739 272.484 242.402 273.572C241.087 274.66 239.501 275.204 237.642 275.204C236.033 275.204 234.593 274.83 233.324 274.082C232.077 273.334 231.103 272.291 230.4 270.954C229.72 269.617 229.38 268.087 229.38 266.364ZM243.49 264.936C243.331 263.077 242.697 261.638 241.586 260.618C240.498 259.598 239.093 259.088 237.37 259.088C236.327 259.088 235.364 259.337 234.48 259.836C233.596 260.312 232.871 260.992 232.304 261.876C231.737 262.76 231.409 263.78 231.318 264.936H243.49ZM259.604 259.36H256.34V257.762H259.604V252.934H261.338V257.762H265.928V259.36H261.338V270.954C261.338 271.838 261.52 272.473 261.882 272.858C262.245 273.221 262.857 273.402 263.718 273.402H266.234V275H263.65C262.2 275 261.157 274.683 260.522 274.048C259.91 273.413 259.604 272.393 259.604 270.988V259.36ZM276.011 275.204C274.402 275.204 272.974 274.83 271.727 274.082C270.48 273.334 269.506 272.291 268.803 270.954C268.1 269.617 267.749 268.087 267.749 266.364C267.749 264.641 268.1 263.123 268.803 261.808C269.506 260.471 270.48 259.428 271.727 258.68C272.974 257.932 274.402 257.558 276.011 257.558C277.62 257.558 279.048 257.932 280.295 258.68C281.564 259.428 282.55 260.471 283.253 261.808C283.956 263.123 284.307 264.641 284.307 266.364C284.307 268.087 283.956 269.617 283.253 270.954C282.55 272.291 281.564 273.334 280.295 274.082C279.048 274.83 277.62 275.204 276.011 275.204ZM276.011 273.64C277.28 273.64 278.414 273.334 279.411 272.722C280.408 272.11 281.179 271.249 281.723 270.138C282.267 269.027 282.539 267.769 282.539 266.364C282.539 264.959 282.267 263.712 281.723 262.624C281.179 261.513 280.408 260.652 279.411 260.04C278.414 259.405 277.28 259.088 276.011 259.088C274.742 259.088 273.608 259.405 272.611 260.04C271.636 260.652 270.877 261.513 270.333 262.624C269.789 263.712 269.517 264.959 269.517 266.364C269.517 267.769 269.789 269.027 270.333 270.138C270.877 271.249 271.636 272.11 272.611 272.722C273.608 273.334 274.742 273.64 276.011 273.64ZM313.359 251.2V275H311.863L311.591 271.09C311.025 272.337 310.175 273.334 309.041 274.082C307.908 274.83 306.571 275.204 305.029 275.204C303.465 275.204 302.06 274.841 300.813 274.116C299.589 273.391 298.626 272.371 297.923 271.056C297.243 269.719 296.903 268.155 296.903 266.364C296.903 264.664 297.243 263.145 297.923 261.808C298.626 260.471 299.589 259.428 300.813 258.68C302.06 257.932 303.465 257.558 305.029 257.558C306.616 257.558 307.976 257.921 309.109 258.646C310.243 259.371 311.081 260.369 311.625 261.638V251.2H313.359ZM305.165 273.64C306.435 273.64 307.557 273.334 308.531 272.722C309.529 272.11 310.299 271.26 310.843 270.172C311.387 269.061 311.659 267.803 311.659 266.398C311.659 264.993 311.387 263.735 310.843 262.624C310.299 261.513 309.529 260.652 308.531 260.04C307.557 259.405 306.435 259.088 305.165 259.088C303.896 259.088 302.763 259.405 301.765 260.04C300.791 260.652 300.031 261.513 299.487 262.624C298.943 263.712 298.671 264.959 298.671 266.364C298.671 267.769 298.943 269.027 299.487 270.138C300.031 271.249 300.791 272.11 301.765 272.722C302.763 273.334 303.896 273.64 305.165 273.64ZM318.536 251.438C318.899 251.438 319.194 251.551 319.42 251.778C319.647 252.005 319.76 252.299 319.76 252.662C319.76 253.025 319.647 253.319 319.42 253.546C319.194 253.773 318.899 253.886 318.536 253.886C318.196 253.886 317.902 253.773 317.652 253.546C317.426 253.319 317.312 253.025 317.312 252.662C317.312 252.299 317.426 252.005 317.652 251.778C317.902 251.551 318.196 251.438 318.536 251.438ZM317.686 257.762H319.42V275H317.686V257.762ZM324.869 269.696C324.937 270.943 325.47 271.929 326.467 272.654C327.464 273.357 328.779 273.708 330.411 273.708C331.839 273.708 333.018 273.402 333.947 272.79C334.876 272.178 335.341 271.373 335.341 270.376C335.341 269.583 335.114 268.971 334.661 268.54C334.23 268.087 333.664 267.769 332.961 267.588C332.258 267.384 331.318 267.191 330.139 267.01C328.688 266.806 327.51 266.579 326.603 266.33C325.696 266.058 324.948 265.616 324.359 265.004C323.77 264.392 323.475 263.542 323.475 262.454C323.475 261.502 323.747 260.652 324.291 259.904C324.858 259.156 325.617 258.578 326.569 258.17C327.544 257.739 328.643 257.524 329.867 257.524C331.839 257.524 333.437 257.966 334.661 258.85C335.908 259.711 336.61 260.969 336.769 262.624H335.035C334.876 261.513 334.332 260.641 333.403 260.006C332.496 259.349 331.352 259.02 329.969 259.02C328.541 259.02 327.385 259.326 326.501 259.938C325.617 260.55 325.175 261.343 325.175 262.318C325.175 263.066 325.39 263.644 325.821 264.052C326.274 264.46 326.818 264.743 327.453 264.902C328.088 265.061 329.006 265.219 330.207 265.378C331.68 265.582 332.893 265.843 333.845 266.16C334.797 266.455 335.568 266.931 336.157 267.588C336.769 268.245 337.075 269.141 337.075 270.274C337.075 271.77 336.429 272.971 335.137 273.878C333.868 274.762 332.292 275.204 330.411 275.204C328.235 275.204 326.49 274.728 325.175 273.776C323.86 272.801 323.18 271.441 323.135 269.696H324.869ZM349.095 257.558C350.659 257.558 352.053 257.921 353.277 258.646C354.523 259.349 355.487 260.369 356.167 261.706C356.869 263.043 357.221 264.596 357.221 266.364C357.221 268.087 356.869 269.617 356.167 270.954C355.487 272.291 354.523 273.334 353.277 274.082C352.053 274.83 350.659 275.204 349.095 275.204C347.485 275.204 346.103 274.83 344.947 274.082C343.813 273.334 342.997 272.314 342.499 271.022V281.8H340.765V257.762H342.261L342.533 261.706C343.099 260.437 343.938 259.428 345.049 258.68C346.182 257.932 347.531 257.558 349.095 257.558ZM348.959 273.64C350.228 273.64 351.35 273.334 352.325 272.722C353.322 272.11 354.093 271.249 354.637 270.138C355.181 269.027 355.453 267.769 355.453 266.364C355.453 264.959 355.181 263.712 354.637 262.624C354.093 261.513 353.322 260.652 352.325 260.04C351.35 259.405 350.228 259.088 348.959 259.088C347.689 259.088 346.556 259.405 345.559 260.04C344.584 260.652 343.825 261.513 343.281 262.624C342.737 263.712 342.465 264.947 342.465 266.33C342.465 267.758 342.737 269.027 343.281 270.138C343.825 271.249 344.584 272.11 345.559 272.722C346.556 273.334 347.689 273.64 348.959 273.64ZM360.97 251.2H362.704V275H360.97V251.2ZM382.908 273.402V275H381.888C380.891 275 380.154 274.751 379.678 274.252C379.225 273.753 379.021 273.051 379.066 272.144V271.43C378.545 272.586 377.729 273.504 376.618 274.184C375.508 274.864 374.125 275.204 372.47 275.204C370.612 275.204 369.127 274.762 368.016 273.878C366.906 272.994 366.35 271.793 366.35 270.274C366.35 268.642 366.928 267.384 368.084 266.5C369.263 265.593 370.952 265.14 373.15 265.14H378.998V263.644C378.998 262.216 378.545 261.105 377.638 260.312C376.754 259.496 375.508 259.088 373.898 259.088C372.47 259.088 371.303 259.405 370.396 260.04C369.512 260.675 368.957 261.525 368.73 262.59H366.996C367.223 261.026 367.948 259.802 369.172 258.918C370.396 258.011 371.994 257.558 373.966 257.558C376.12 257.558 377.786 258.091 378.964 259.156C380.143 260.221 380.732 261.74 380.732 263.712V271.736C380.732 272.257 380.868 272.665 381.14 272.96C381.412 273.255 381.786 273.402 382.262 273.402H382.908ZM378.998 266.636H373.014C371.428 266.636 370.215 266.942 369.376 267.554C368.538 268.166 368.118 269.039 368.118 270.172C368.118 271.237 368.515 272.099 369.308 272.756C370.124 273.391 371.212 273.708 372.572 273.708C374.567 273.708 376.131 273.187 377.264 272.144C378.42 271.079 378.998 269.707 378.998 268.03V266.636ZM385.18 257.762L391.164 272.96L397.046 257.762H398.916L390.654 278.196C390.246 279.216 389.895 279.964 389.6 280.44C389.305 280.916 388.943 281.256 388.512 281.46C388.081 281.687 387.481 281.8 386.71 281.8H384.058V280.202H386.234C386.823 280.202 387.265 280.134 387.56 279.998C387.877 279.862 388.127 279.635 388.308 279.318C388.512 279.001 388.773 278.479 389.09 277.754L390.212 275.068L383.31 257.762H385.18ZM411.761 251.438C412.124 251.438 412.418 251.551 412.645 251.778C412.872 252.005 412.985 252.299 412.985 252.662C412.985 253.025 412.872 253.319 412.645 253.546C412.418 253.773 412.124 253.886 411.761 253.886C411.421 253.886 411.126 253.773 410.877 253.546C410.65 253.319 410.537 253.025 410.537 252.662C410.537 252.299 410.65 252.005 410.877 251.778C411.126 251.551 411.421 251.438 411.761 251.438ZM410.911 257.762H412.645V275H410.911V257.762ZM436.216 257.558C438.12 257.558 439.65 258.193 440.806 259.462C441.984 260.731 442.574 262.624 442.574 265.14V275H440.806V265.242C440.806 263.27 440.386 261.763 439.548 260.72C438.709 259.677 437.53 259.156 436.012 259.156C434.402 259.156 433.11 259.745 432.136 260.924C431.184 262.08 430.685 263.644 430.64 265.616V275H428.906V265.242C428.906 263.27 428.475 261.763 427.614 260.72C426.775 259.677 425.585 259.156 424.044 259.156C422.412 259.156 421.108 259.802 420.134 261.094C419.159 262.386 418.672 264.097 418.672 266.228V275H416.972V257.762H418.468L418.74 261.468C419.193 260.289 419.896 259.349 420.848 258.646C421.8 257.921 422.967 257.558 424.35 257.558C425.732 257.558 426.922 257.932 427.92 258.68C428.917 259.405 429.62 260.471 430.028 261.876C430.549 260.539 431.331 259.485 432.374 258.714C433.416 257.943 434.697 257.558 436.216 257.558ZM462.551 273.402V275H461.531C460.533 275 459.797 274.751 459.321 274.252C458.867 273.753 458.663 273.051 458.709 272.144V271.43C458.187 272.586 457.371 273.504 456.261 274.184C455.15 274.864 453.767 275.204 452.113 275.204C450.254 275.204 448.769 274.762 447.659 273.878C446.548 272.994 445.993 271.793 445.993 270.274C445.993 268.642 446.571 267.384 447.727 266.5C448.905 265.593 450.594 265.14 452.793 265.14H458.641V263.644C458.641 262.216 458.187 261.105 457.281 260.312C456.397 259.496 455.15 259.088 453.541 259.088C452.113 259.088 450.945 259.405 450.039 260.04C449.155 260.675 448.599 261.525 448.373 262.59H446.639C446.865 261.026 447.591 259.802 448.815 258.918C450.039 258.011 451.637 257.558 453.609 257.558C455.762 257.558 457.428 258.091 458.607 259.156C459.785 260.221 460.375 261.74 460.375 263.712V271.736C460.375 272.257 460.511 272.665 460.783 272.96C461.055 273.255 461.429 273.402 461.905 273.402H462.551ZM458.641 266.636H452.657C451.07 266.636 449.857 266.942 449.019 267.554C448.18 268.166 447.761 269.039 447.761 270.172C447.761 271.237 448.157 272.099 448.951 272.756C449.767 273.391 450.855 273.708 452.215 273.708C454.209 273.708 455.773 273.187 456.907 272.144C458.063 271.079 458.641 269.707 458.641 268.03V266.636ZM480.996 257.762V273.946C480.996 276.666 480.327 278.683 478.99 279.998C477.653 281.335 475.59 282.004 472.802 282.004C470.671 282.004 468.926 281.517 467.566 280.542C466.206 279.567 465.39 278.173 465.118 276.36H466.92C467.192 277.652 467.849 278.649 468.892 279.352C469.957 280.077 471.306 280.44 472.938 280.44C475.069 280.44 476.655 279.907 477.698 278.842C478.741 277.799 479.262 276.145 479.262 273.878V270.852C478.695 272.212 477.845 273.277 476.712 274.048C475.601 274.819 474.253 275.204 472.666 275.204C471.102 275.204 469.697 274.841 468.45 274.116C467.226 273.391 466.263 272.371 465.56 271.056C464.88 269.719 464.54 268.155 464.54 266.364C464.54 264.641 464.88 263.111 465.56 261.774C466.263 260.437 467.226 259.405 468.45 258.68C469.697 257.932 471.102 257.558 472.666 257.558C474.23 257.558 475.579 257.932 476.712 258.68C477.845 259.428 478.684 260.459 479.228 261.774L479.5 257.762H480.996ZM472.802 273.64C474.071 273.64 475.193 273.334 476.168 272.722C477.165 272.11 477.936 271.26 478.48 270.172C479.024 269.061 479.296 267.803 479.296 266.398C479.296 264.97 479.024 263.701 478.48 262.59C477.936 261.479 477.165 260.618 476.168 260.006C475.193 259.394 474.071 259.088 472.802 259.088C471.533 259.088 470.399 259.394 469.402 260.006C468.427 260.618 467.668 261.479 467.124 262.59C466.58 263.701 466.308 264.959 466.308 266.364C466.308 267.769 466.58 269.027 467.124 270.138C467.668 271.249 468.427 272.11 469.402 272.722C470.399 273.334 471.533 273.64 472.802 273.64ZM484.745 266.364C484.745 264.641 485.074 263.111 485.731 261.774C486.411 260.437 487.352 259.405 488.553 258.68C489.777 257.932 491.16 257.558 492.701 257.558C494.22 257.558 495.569 257.887 496.747 258.544C497.926 259.179 498.855 260.108 499.535 261.332C500.238 262.556 500.612 264.007 500.657 265.684C500.657 266.001 500.646 266.239 500.623 266.398H486.581C486.559 266.489 486.547 266.625 486.547 266.806C486.57 268.143 486.853 269.333 487.397 270.376C487.941 271.396 488.689 272.201 489.641 272.79C490.593 273.357 491.67 273.64 492.871 273.64C494.277 273.64 495.501 273.255 496.543 272.484C497.586 271.691 498.277 270.625 498.617 269.288H500.385C499.977 271.056 499.105 272.484 497.767 273.572C496.453 274.66 494.866 275.204 493.007 275.204C491.398 275.204 489.959 274.83 488.689 274.082C487.443 273.334 486.468 272.291 485.765 270.954C485.085 269.617 484.745 268.087 484.745 266.364ZM498.855 264.936C498.697 263.077 498.062 261.638 496.951 260.618C495.863 259.598 494.458 259.088 492.735 259.088C491.693 259.088 490.729 259.337 489.845 259.836C488.961 260.312 488.236 260.992 487.669 261.876C487.103 262.76 486.774 263.78 486.683 264.936H498.855Z" fill="white"/>
<path d="M321.23 148.25L323 134L315.71 142.76" stroke="white" stroke-width="2" stroke-linecap="round" stroke-linejoin="round"/>
<path d="M339.71 166.73L347 158H330.98" stroke="white" stroke-width="2" stroke-linecap="round" stroke-linejoin="round"/>
<path d="M308 152L293 170H320L317 194L332 176" stroke="white" stroke-width="2" stroke-linecap="round" stroke-linejoin="round"/>
<path d="M287 131L353 197" stroke="white" stroke-width="2" stroke-linecap="round" stroke-linejoin="round"/>
</svg>
