<svg width="239" height="117" viewBox="0 0 239 117" fill="none" xmlns="http://www.w3.org/2000/svg">
  <path d="M224 57.0526L224 5C224 2.79086 222.209 1 220 1L78 0.999994C75.7909 0.999994 74 2.79086 74 5L74 90.9474C74 93.1565 75.7909 94.9474 78 94.9474L179 94.9474" stroke="#9FA2A7" stroke-width="2"/>
  <line x1="74" y1="22.1052" x2="224" y2="22.1052" stroke="#9FA2A7" stroke-width="2"/>
  <line x1="84.4736" y1="11.0527" x2="142.474" y2="11.0527" stroke="#9FA2A7" stroke-width="2" stroke-linecap="round"/>
  <line x1="189.474" y1="11.0527" x2="192.21" y2="11.0527" stroke="#9FA2A7" stroke-width="2" stroke-linecap="round"/>
  <line x1="199.737" y1="11.0527" x2="202.474" y2="11.0527" stroke="#9FA2A7" stroke-width="2" stroke-linecap="round"/>
  <line x1="209.21" y1="11.0527" x2="211.947" y2="11.0527" stroke="#9FA2A7" stroke-width="2" stroke-linecap="round"/>
  <circle cx="213.737" cy="91" r="24.2632" stroke="#9FA2A7" stroke-width="2"/>
  <path d="M224.789 91H203.474" stroke="#9FA2A7" stroke-width="2" stroke-linecap="round" stroke-linejoin="round"/>
  <path d="M209.789 99.6841L202.684 90.9999L209.789 82.3157" stroke="#9FA2A7" stroke-width="2" stroke-linecap="round" stroke-linejoin="round"/>
  <path d="M108.226 66.6741V63.9148C108.226 62.4512 107.724 61.0475 106.829 60.0126C105.935 58.9777 104.722 58.3962 103.457 58.3962H93.9196C92.6549 58.3962 91.4419 58.9777 90.5476 60.0126C89.6533 61.0475 89.1509 62.4512 89.1509 63.9148V66.6741" stroke="#9FA2A7" stroke-width="2" stroke-linecap="round" stroke-linejoin="round"/>
  <path d="M98.859 54.8352C101.438 54.8352 103.528 52.7447 103.528 50.1659C103.528 47.5871 101.438 45.4966 98.859 45.4966C96.2802 45.4966 94.1897 47.5871 94.1897 50.1659C94.1897 52.7447 96.2802 54.8352 98.859 54.8352Z" stroke="#9FA2A7" stroke-width="2" stroke-linecap="round" stroke-linejoin="round"/>
  <path d="M143.752 66.6741V63.9148C143.752 62.4512 143.25 61.0475 142.356 60.0126C141.461 58.9777 140.248 58.3962 138.984 58.3962H129.446C128.181 58.3962 126.968 58.9777 126.074 60.0126C125.18 61.0475 124.677 62.4512 124.677 63.9148V66.6741" stroke="#9FA2A7" stroke-width="2" stroke-linecap="round" stroke-linejoin="round"/>
  <path d="M134.385 54.8352C136.964 54.8352 139.055 52.7447 139.055 50.1659C139.055 47.5871 136.964 45.4966 134.385 45.4966C131.807 45.4966 129.716 47.5871 129.716 50.1659C129.716 52.7447 131.807 54.8352 134.385 54.8352Z" stroke="#9FA2A7" stroke-width="2" stroke-linecap="round" stroke-linejoin="round"/>
  <path d="M179.279 66.6741V63.9148C179.279 62.4512 178.776 61.0475 177.882 60.0126C176.988 58.9777 175.775 58.3962 174.51 58.3962H164.972C163.708 58.3962 162.495 58.9777 161.6 60.0126C160.706 61.0475 160.204 62.4512 160.204 63.9148V66.6741" stroke="#9FA2A7" stroke-width="2" stroke-linecap="round" stroke-linejoin="round"/>
  <path d="M169.912 54.8352C172.491 54.8352 174.581 52.7447 174.581 50.1659C174.581 47.5871 172.491 45.4966 169.912 45.4966C167.333 45.4966 165.242 47.5871 165.242 50.1659C165.242 52.7447 167.333 54.8352 169.912 54.8352Z" stroke="#9FA2A7" stroke-width="2" stroke-linecap="round" stroke-linejoin="round"/>
  <path d="M23 49C23.4295 49.5741 23.9774 50.0491 24.6066 50.3929C25.2357 50.7367 25.9315 50.9411 26.6467 50.9923C27.3618 51.0435 28.0796 50.9403 28.7513 50.6897C29.4231 50.4392 30.0331 50.047 30.54 49.54L33.54 46.54C34.4508 45.597 34.9548 44.3339 34.9434 43.023C34.932 41.712 34.4061 40.4579 33.4791 39.5309C32.5521 38.6038 31.298 38.078 29.987 38.0666C28.676 38.0552 27.413 38.5592 26.47 39.47L24.75 41.18" stroke="#9FA2A7" stroke-width="2" stroke-linecap="round" stroke-linejoin="round"/>
  <path d="M27 47C26.5705 46.4259 26.0226 45.9508 25.3934 45.607C24.7642 45.2633 24.0684 45.0589 23.3533 45.0076C22.6382 44.9564 21.9204 45.0596 21.2486 45.3102C20.5769 45.5608 19.9668 45.9529 19.46 46.46L16.46 49.46C15.5492 50.403 15.0452 51.666 15.0566 52.977C15.068 54.288 15.5938 55.542 16.5209 56.4691C17.4479 57.3961 18.702 57.922 20.0129 57.9334C21.3239 57.9447 22.5869 57.4408 23.53 56.53L25.24 54.82" stroke="#9FA2A7" stroke-width="2" stroke-linecap="round" stroke-linejoin="round"/>
  <circle cx="25" cy="48" r="24" stroke="#9FA2A7" stroke-width="2"/>
  <line x1="49" y1="49" x2="74" y2="49" stroke="#9FA2A7" stroke-width="2"/>
</svg>
