<svg width="206" height="90" viewBox="0 0 206 90" fill="none" xmlns="http://www.w3.org/2000/svg">
  <path d="M14 89L200.057 89C202.266 89 204.057 87.2091 204.057 85L204.057 14" stroke="#9FA2A7" stroke-width="2"/>
  <path d="M65.7728 58.8066V52.2725C65.7728 48.8066 64.583 45.4827 62.4652 43.0319C60.3474 40.5812 57.4751 39.2043 54.4801 39.2043H31.8949C28.8999 39.2043 26.0276 40.5812 23.9098 43.0319C21.792 45.4827 20.6023 48.8066 20.6023 52.2725V58.8066" stroke="#9FA2A7" stroke-width="2" stroke-linecap="round" stroke-linejoin="round"/>
  <path d="M43.5913 30.7715C49.698 30.7715 54.6484 25.821 54.6484 19.7143C54.6484 13.6077 49.698 8.65723 43.5913 8.65723C37.4846 8.65723 32.5342 13.6077 32.5342 19.7143C32.5342 25.821 37.4846 30.7715 43.5913 30.7715Z" stroke="#9FA2A7" stroke-width="2" stroke-linecap="round" stroke-linejoin="round"/>
  <line x1="82.9658" y1="7.52271" x2="171.307" y2="7.52271" stroke="#9FA2A7" stroke-width="2" stroke-linecap="round"/>
  <line x1="82.9658" y1="23.7158" x2="171.307" y2="23.7158" stroke="#9FA2A7" stroke-width="2" stroke-linecap="round"/>
  <line x1="82.9658" y1="39.9092" x2="137.216" y2="39.9092" stroke="#9FA2A7" stroke-width="2" stroke-linecap="round"/>
  <line x1="82.9658" y1="56.9546" x2="137.216" y2="56.9546" stroke="#9FA2A7" stroke-width="2" stroke-linecap="round"/>
  <path d="M161.405 38.4941H153.699C153.115 38.4941 152.555 38.7261 152.142 39.139C151.729 39.5519 151.497 40.1119 151.497 40.6958V56.1078C151.497 56.6917 151.729 57.2517 152.142 57.6646C152.555 58.0775 153.115 58.3095 153.699 58.3095H169.111C169.695 58.3095 170.255 58.0775 170.668 57.6646C171.08 57.2517 171.312 56.6917 171.312 56.1078V48.4018" stroke="#9FA2A7" stroke-width="2" stroke-linecap="round" stroke-linejoin="round"/>
  <path d="M169.661 36.8429C170.099 36.405 170.693 36.1589 171.313 36.1589C171.932 36.1589 172.526 36.405 172.964 36.8429C173.402 37.2809 173.648 37.8748 173.648 38.4942C173.648 39.1135 173.402 39.7075 172.964 40.1455L162.506 50.6036L158.102 51.7044L159.203 47.301L169.661 36.8429Z" stroke="#9FA2A7" stroke-width="2" stroke-linecap="round" stroke-linejoin="round"/>
  <path d="M191.057 -6.78253e-07L191.057 71C191.057 73.2091 189.266 75 187.057 75L5 75C2.79086 75 1 73.2091 1 71L0.999997 7.62939e-06" stroke="#9FA2A7" stroke-width="2"/>
</svg>
